<svg width="10" height="11" viewBox="0 0 10 11" fill="none" xmlns="http://www.w3.org/2000/svg">
<path fill-rule="evenodd" clip-rule="evenodd" d="M8.27493 0.234131C8.42334 0.085083 8.62982 0 8.84 0C9.0509 0 9.25748 0.085083 9.40582 0.234131C9.55493 0.382568 9.64001 0.589111 9.64001 0.800049C9.64001 1.01013 9.55493 1.21667 9.40582 1.36584C9.25674 1.51416 9.0509 1.59998 8.84 1.59998C8.62982 1.59998 8.42328 1.51416 8.27493 1.36584C8.12582 1.21667 8.04001 1.01025 8.04001 0.800049C8.04001 0.589111 8.12576 0.382568 8.27493 0.234131ZM0 6.40002C0 8.51733 1.72272 10.2397 3.84 10.2397C5.95728 10.2397 7.67999 8.51733 7.67999 6.40002C7.67999 4.28259 5.95743 2.56006 3.84 2.56006C1.72256 2.56006 0 4.28259 0 6.40002Z" fill="white"/>
</svg>
